<svg xmlns="http://www.w3.org/2000/svg" width="73" height="72" viewBox="0 0 73 72" fill="none"><path d="M36.66 72C46.21 72 55.36 68.21 62.12 61.46C68.87 54.7 72.66 45.55 72.66 36C72.66 26.45 68.87 17.3 62.12 10.54C55.36 3.79 46.21 0 36.66 0C27.11 0 17.96 3.79 11.2 10.54C4.45 17.3 0.66 26.45 0.66 36C0.66 45.55 4.45 54.7 11.2 61.46C17.96 68.21 27.11 72 36.66 72Z" fill="#FF9235"/><path d="M50.86 13.11C49.69 13.4 49.66 13.43 45.88 18.11L40.66 22.49L30.14 22.48C21.48 22.48 19.53 22.5 19.42 22.62C17.52 22.98 16.35 24.24 16.77 25.81C16.14 26.21 15.99 29.35 16.54 36.28C16.32 47.39 15.98 46.55 16.72 47.65C17.19 48.35 17.96 48.93 18.74 49.17C19.3 49.35 19.56 49.35 25.54 49.35H31.76L31.72 49.83C31.68 50.8 31.58 51.41 31.48 52.76C31.38 54.11 31.28 55.44 31.25 55.7L31.21 56.16H29.89C28.73 56.16 28.54 56.19 28.28 56.34C27.38 56.89 27.43 58.23 28.35 58.69C28.64 58.84 29.22 58.85 36.5 58.85C43.78 58.85 44.35 58.84 44.65 58.69C45.57 58.23 45.62 56.89 44.72 56.34C44.46 56.19 44.27 56.16 43.11 56.16H41.79L41.75 55.69C41.71 55.44 41.61 54.11 41.52 52.76C41.42 51.41 41.32 50.8 41.28 49.82L41.24 49.35H47.45C53.44 49.35 53.7 49.35 54.26 49.17C55.41 48.93 55.81 48.35 56.28 47.65C57.12 46.55 56.96 47.39 56.99 36.28C57.12 29.34 56.99 26.21 56.92 25.81C56.6 23.92 54.92 22.48 53.34 22.48C52.77 22.48 52.81 22.43 53.98 21.25C55.34 19.88 55.68 19.4 55.95 18.51C56.98 18.22 56.13 17.74 56.98 17.36C56.71 16.27 56.35 16.87 55.75 15.5C55.57 15.13 55.25 14.62 55.23 14.38C54.11 13.27 52.34 12.76 50.86 13.11ZM52.49 15.85C53.12 16.14 53.43 16.62 53.43 17.31C53.43 17.5 53.37 17.79 53.29 17.95C53.22 18.1 50.18 21.22 46.52 24.86L39.89 31.48L39.7 31.22C39.38 30.78 38.39 29.76 38.43 29.5L37.66 29.25L44.27 22.63C48.77 18.12 50.99 15.96 51.23 15.85C51.68 15.64 52.31 15.63 52.49 15.85ZM36.41 26.74L34.84 28.3H33.98C32.48 28.3 30.32 29.25 28.93 30.7C27.69 32.31 26.49 36.54 25.92 41.27C25.82 42.12 25.82 42.2 25.99 42.52C26.4 43.3 26.83 43.39 28.93 43.84C32.67 42.54 35.34 41.84 37.26 40.89C38.37 40.34 39 39.84 39.59 39.85C40.41 37.86 40.81 36.67 40.85 35.2L40.89 34.26L45.43 29.71L49.98 25.16L51.73 25.19C53.37 25.21 53.49 25.22 53.75 25.41C54.31 25.81 54.28 25.28 54.28 36.78C54.28 45.31 54.27 45.83 54.12 46.67C54.29 46.21 53.83 46.4 53.67 46.49C53.39 46.67 53.79 46.67 36.5 46.67C19.92 46.67 19.61 46.67 19.33 46.49C19.17 46.4 18.97 46.21 18.88 46.67C18.73 45.83 18.72 45.3 18.69 36.16C18.67 29.3 18.7 26.4 18.77 26.14C18.88 25.73 19.28 25.3 19.6 25.23C19.7 25.21 23.89 25.19 28.89 25.18L37.98 25.17L36.41 26.74ZM35.35 31.18C37.57 31.92 38.71 34.28 37.91 36.45C37.53 37.49 36.96 38.86 35.86 38.6C34.66 39.16 32.15 39.81 29.92 40.34C28.72 40.41 28.72 40.43 29.74 38.62C29.83 34.72 30.48 32.88 31.41 32.13C31.83 31.62 32.71 31.14 33.19 31.55C33.8 30.94 34.82 31.7 35.35 31.18ZM38.56 49.42C38.56 49.52 39 55.38 39.43 55.78L39.79 56.16H36.49H33.9L33.95 55.78C33.99 55.45 34.44 49.6 34.44 49.42C34.44 49.38 35.37 49.35 36.5 49.35C37.64 49.35 38.56 49.38 38.56 49.42Z" fill="white"/></svg>