<svg xmlns="http://www.w3.org/2000/svg" width="73" height="72" viewBox="0 0 73 72" fill="none"><path d="M36.65 72C46.2 72 55.35 68.21 62.11 61.46C68.86 54.7 72.65 45.55 72.65 36C72.65 26.45 68.86 17.3 62.11 10.54C55.35 3.79 46.2 0 36.65 0C27.1 0 17.95 3.79 11.19 10.54C4.44 17.3 0.65 26.45 0.65 36C0.65 45.55 4.44 54.7 11.19 61.46C17.95 68.21 27.1 72 36.65 72Z" fill="#FF9235"/><path d="M33.4 35.9C31.17 44.24 29.99 48.84 30.49 48.88C30.21 48.97 34.22 50.41 34.25 50C34.26 49.98 35.82 44.17 37.73 37.86C39.97 28.7 41.14 24.18 41.67 24.14C40.96 24.79 37.24 23 36.91 23C36.89 23 35.31 28.81 33.4 35.9Z" fill="white"/><path d="M17.28 30.23L11 36.51L17.3 42.81L23.62 49.13L25.19 47.56L26.76 45.99L22.28 41.25L17.28 36.51L22.28 31.77L26.76 27.32L25.21 25.48C24.36 24.63 23.65 23.94 23.62 23.94C23.59 23.94 20.74 26.77 17.28 30.23Z" fill="white"/><path d="M45.9 25.48L44.36 27.32L49.89 31.77L53.83 36.51L49.89 41.25L44.36 45.99L45.93 47.56L47.5 49.13L53.81 42.81L60.12 36.51L53.83 30.23C50.38 26.77 47.53 23.94 47.5 23.94C47.47 23.94 46.75 24.63 45.9 25.48Z" fill="white"/></svg>