<svg xmlns="http://www.w3.org/2000/svg" xmlns:xlink="http://www.w3.org/1999/xlink" width="36px" height="36px" viewBox="0 0 36 36" version="1.1"><title>Email</title><g id="Email" stroke="none" stroke-width="1" fill="none" fill-rule="evenodd"><g transform="translate(7, 9.5)" fill="#141C3A" fill-rule="nonzero" id="Shape"><path d="M1.8 0.58C0.95 0.23 0.22 1.38 0.55 1.98C-0.18 2.39-0.18 14.54 0.55 14.95C0.23 15.93 1.15 16.73 1.96 16.87C2.15 16.91 5.81 16.93 8.58 16.93L14.86 16.93L14.98 17.28C16.11 20.68 19.51 22.5 22.68 21.43C23.2 21.26 23.88 20.9 24.13 20.74C24.34 20.35 24.11 19.76 23.63 19.76C23.53 19.76 23.29 19.84 23.1 19.94C22.16 20.42 21.29 20.6 20.31 20.49C18.17 20.27 16.43 18.64 15.9 16.36C15.82 16.3 15.8 15.75 15.8 15.33C15.81 14.22 15.82 14.76 15.95 13.62C16.47 11.79 17.74 10.43 19.44 9.87C19.86 9.74 19.99 9.72 20.75 9.71C21.42 9.71 21.68 9.73 21.99 9.82C23.76 10.3 25.1 11.66 25.64 13.5C25.84 14.18 25.94 15.43 25.85 15.93C25.76 16.39 25.41 16.77 25.2 16.86C24.46 16.99 23.97 16.73 23.73 16.17C23.64 15.97 23.63 15.78 23.63 14.56C23.63 13.51 23.61 12.93 23.31 12.77C23.12 12.66 23.11 12.66 22.82 12.77C22.67 12.85 22.66 12.84 22.47 12.69C21.67 12.15 20.47 11.91 19.51 12.43C19.2 12.6 18.68 13.11 18.46 13.46C17.47 15.73 18.2 17.31 19.93 17.96C20.83 18.3 21.92 18.58 22.65 17.37L22.91 17.12L23.18 17.41C24.44 18.76 26.62 18.3 26.95 16.14C26.98 15.97 27.26 15.57 27.26 15.24C27.26 13.4 26.11 11.86 24.51 9.79C23.75 9.17 22.56 8.64 21.64 8.52L21.36 8.48L21.36 5.24C21.36 2.2 21.35 1.98 21.26 1.68C21 0.86 20.4 0.27 19.65 0.75C19.38 0.12 17.97 -0.46 10.68 0.1C5.92 0.67 1.93 0.29 1.8 0.58ZM19.13 1.24C19.11 1.32 11.18 8.29 11.35 8.36C10.84 8.45 10.5 8.45 10.34 8.36C10.2 8.28 2.63 1.64 2.35 1.35L2.19 1.18L10.68 1.18C15.62 1.18 19.15 1.21 19.13 1.24ZM5.46 5.66C7.74 7.67 9.71 9.37 9.83 9.44C10.32 9.7 10.99 9.71 11.51 9.47C11.64 9.41 13.62 7.7 15.92 5.67C18.22 3.64 20.12 1.98 20.15 1.98C20.24 1.98 20.25 2.36 20.25 5.35L20.25 8.47L19.85 8.55C17.69 8.92 15.82 10.55 15.32 12.75C14.76 13.5 14.58 14.77 14.65 15.4L14.68 15.68L8.27 15.67L1.86 15.66L1.63 15.49C1.51 15.39 1.34 15.2 1.27 15.62L1.14 14.81L1.14 8.49C1.14 5.19 1.15 2.13 1.18 2.74C1.2 2.17 1.24 1.98 1.26 1.99C1.29 2.44 3.18 3.65 5.46 5.66ZM21.53 13.46C21.82 13.62 22.17 13.98 22.31 14.27C22.54 14.74 22.54 15.43 22.31 15.91C21.89 16.79 20.86 17.15 20.42 16.7C19.77 16.56 19.44 16.18 19.29 15.87C19.12 15.48 19.12 14.69 19.3 14.33C19.52 13.87 19.9 13.52 20.36 13.36C20.62 13.27 21.27 13.33 21.53 13.46Z"/></g></g></svg>