<svg xmlns="http://www.w3.org/2000/svg" xmlns:xlink="http://www.w3.org/1999/xlink" width="36px" height="36px" viewBox="0 0 36 36" version="1.1"><title>Habr</title><g id="Habr" stroke="none" stroke-width="1" fill="none" fill-rule="evenodd"><g transform="translate(6, 6)" fill="#141C3A" fill-rule="nonzero" id="Shape"><path d="M0 12L0 24L12 24L24 24L24 12L24 0L12 0L0 0L0 12ZM9.76 4.27C10.13 4.5 10.28 4.83 10.32 4.13C10.34 4.17 10.36 5.4 10.36 6.97C10.36 8.5 10.38 9.75 10.4 9.75C10.42 9.75 10.48 9.7 10.53 9.65C10.72 9.43 11.33 8.98 11.6 8.86C12.18 8.6 13.2 8.47 13.89 8.58C14.83 8.72 15.72 9.23 16.23 9.92C16.46 10.25 16.77 10.88 16.83 11.18C16.89 11.48 16.96 14.65 16.97 17.12L16.97 19.31L15.31 19.31L13.65 19.31L13.63 15.92C13.62 12.82 13.62 12.82 13.51 12.6C13.34 12.22 13.1 11.93 12.83 11.78C12.6 11.66 12.56 11.65 12.47 11.65C11.59 11.65 11.47 11.66 11.29 11.75C10.92 11.92 10.58 12.32 10.44 12.77C10.42 12.85 10.38 14.23 10.36 15.91C10.34 17.64 10.3 18.92 10.28 18.94C10.25 18.97 9.52 19.31 8.63 19.17L7.31 19.45L7.31 11.52L7.31 3.98L8.15 3.99C8.76 3.99 9.49 4.78 9.76 4.27Z"/></g></g></svg>