<svg xmlns="http://www.w3.org/2000/svg" width="73" height="72" viewBox="0 0 73 72" fill="none"><path d="M36.65 72C46.2 72 55.35 68.21 62.11 61.46C68.86 54.7 72.65 45.55 72.65 36C72.65 26.45 68.86 17.3 62.11 10.54C55.35 3.79 46.2 0 36.65 0C27.1 0 17.95 3.79 11.19 10.54C4.44 17.3 0.65 26.45 0.65 36C0.65 45.55 4.44 54.7 11.19 61.46C17.95 68.21 27.1 72 36.65 72Z" fill="#FF9235"/><path d="M20.24 15.29C18.31 15.29 16.74 16.65 16.16 18.55C16.88 19.49 16 19.59 16 27.91C16 36.23 16.88 36.77 16.16 37.28C16.57 38.59 17.44 39.67 18.58 40.26C19.4 40.7 20.17 40.85 21.41 40.85H22.4L22.42 43.49C22.45 45.73 22.47 46.15 22.6 46.38C23.15 47.14 23.92 47.49 24.64 47.18C24.8 47.12 26.18 46.13 27.71 44.98L30.49 42.9L30.53 45.56C30.58 48.11 30.6 48.28 30.77 48.74C31.17 49.8 31.89 50.63 32.85 51.11C33.84 51.62 34.51 51.63 38.87 51.63H43.28L46.72 54.2C49.84 56.55 50.54 57.58 50.94 57.23C51.24 57.23 51.75 56.83 52.13 56.61C52.57 56.14 52.62 55.88 52.62 53.64V51.63H53.31C54.69 51.63 55.72 51.26 56.56 50.47C57.13 49.94 57.5 49.38 57.76 48.67L57.97 48.14L57.99 40.99C58.12 36.3 57.99 33.62 57.92 33.21C57.67 31.47 56.28 30 54.58 29.64C54.3 29.58 52.98 29.55 51.21 29.55H48.29V24.44C48.29 19.62 48.28 19.29 48.12 18.64C47.9 17.75 47.51 17.88 46.84 16.42C46.26 15.84 45.73 15.51 44.89 15.21L44.36 15.11L32.43 15.23C25.88 14.99 20.39 15.11 20.24 15.29ZM44.26 18.33C44.33 18.45 44.73 18.82 44.9 19.14C45.66 19.34 45.24 20.74 45.24 27.91C45.24 34.51 45 36.5 44.93 36.64C44.79 36.89 44.41 37.31 44.18 37.44C44.61 37.51 42.37 37.55 38.13 37.59C33.17 37.62 32.21 37.65 32.9 37.76C31.86 37.83 30.38 38.92 28.73 40.17L25.72 42.45L25.67 40.56C25.65 39.34 25.6 38.63 25.52 38.5C25.34 38.19 24.81 37.78 24.46 37.68C24.28 37.63 23.3 37.59 22.27 37.59C20.18 37.59 20.29 37.55 19.54 36.94L19.27 36.6L19.24 28.34C19.22 19.76 19.22 19.46 19.39 19.14C19.58 18.77 19.76 18.59 20.15 18.39C20.39 18.25 21.61 18.24 32.98 18.24C40.14 18.24 43.85 18.26 44.26 18.33ZM54.36 32.84C54.2 32.9 54.43 33.8 54.54 33.25L54.74 33.55V40.58C54.74 47.38 54.73 47.62 54.58 47.87C54.27 48.32 54.12 48.36 52.45 48.36C50.77 48.36 50.39 48.43 49.97 48.78C49.49 49.19 49.41 49.43 49.35 50.83L49.31 52.1L46.97 50.34C45.68 49.38 44.49 48.55 44.32 48.49C44.79 48.4 42.86 48.37 39.27 48.36H34.54L34.24 48.16C33.74 47.83 33.72 47.68 33.72 44.16L33.72 40.97L35.19 40.92C35.99 40.88 38.27 40.85 40.24 40.85C43.63 40.85 43.96 40.82 44.45 40.72C46.93 40.38 47.39 39.24 48.11 37.6C48.23 37.38 48.24 36.91 48.28 34.86L48.31 32.73L51.15 32.73C52.88 32.73 53.82 32.77 54.36 32.84Z" fill="white"/><path d="M24.84 24.69V26.28H32.17H40.25V24.69V23.96H32.17H24.84V24.69Z" fill="white"/><path d="M24.84 31.14V32.73H28.1H32.12V31.14V29.55H28.1H24.84V31.14Z" fill="white"/></svg>