<svg xmlns="http://www.w3.org/2000/svg" xmlns:xlink="http://www.w3.org/1999/xlink" width="36px" height="36px" viewBox="0 0 36 36" version="1.1"><title>TG</title><g id="TG" stroke="none" stroke-width="1" fill="none" fill-rule="evenodd"><g transform="translate(3, 6)" fill="#141C3A" fill-rule="nonzero" id="Shape"><path d="M20.51 1.8C18.69 2.78 12.58 4.96 8.31 6.66C-0.2 10.44-0.8 9.98 0.23 10.76C0.54 10.98 0.17 11.27 0.28 11.38C0.4 11.49 1.97 12.15 3.78 12.84L7.62 14.11L7.96 17.51C8.46 19.38 8.91 21.1 8.97 21.14C9.12 21.45 9.71 21.74 10.49 21.65C10.19 21.62 11.15 20.99 12.19 20.26L14.59 18.91L17.48 21.24C20.38 23.2 20.95 23.55 21.27 23.55C21.67 23.55 22.49 23.36 22.2 23.57C22.38 22.73 26.47 1.35 26.4 0.74C26.37 0.6 26.22 0.37 26.9 0.24C25.62 -0.23 25.32 -0.15 20.51 1.8ZM19.94 4.78C19.52 5.21 17.46 7.58 14.46 10.65C11.88 12.55 9.71 14.7 9.65 14.84L9.53 15.11L9.42 14.76C9.36 14.56 9.23 14.11 9.14 13.73C9.46 13.37 8.9 12.95 8.82 12.79C8.66 12.49 8.35 12.35 5.58 11.29C4.52 10.88 4.44 10.66 4.14 10.6C4.32 10.49 20.48 4.39 20.61 4.29C20.66 4.18 20.36 4.36 19.94 4.78ZM23.6 4.87C23.52 5.28 22.82 8.95 22.59 13.1C21.28 17.72 20.62 20.48 20.58 20.58C20.52 20.73 19.84 20.31 16.43 17.99C14.18 16.47 12.34 15.17 12.34 15.12C12.34 15.52 23.55 4.14 23.67 4.13C23.71 4.12 23.67 4.46 23.6 4.87ZM11.13 16.93C11.65 17.28 12.85 17.6 12.85 17.65C12.85 17.75 10.68 18.8 10.54 18.8C10.5 18.8 10.31 18.21 10.12 17.48C9.94 16.75 9.76 16.9 9.73 16.78C9.7 15.9 9.76 15.93 9.92 16.7C10.59 16.19 10.61 16.58 11.13 16.93Z"/></g></g></svg>